Coordinates
version=1
nRows=16
nColumns=22
inDegrees=yes

Units are S.I. units (second, meters, Newtons, ...)
If the header above contains a line with 'inDegrees', this indicates whether rotational values are in degrees (yes) or radians (no).

endheader
time	pelvis_tilt	pelvis_list	pelvis_rotation	pelvis_tx	pelvis_ty	pelvis_tz	hip_flexion_r	hip_adduction_r	hip_rotation_r	knee_angle_r	ankle_angle_r	subtalar_angle_r	hip_flexion_l	hip_adduction_l	hip_rotation_l	knee_angle_l	ankle_angle_l	subtalar_angle_l	lumbar_extension	lumbar_bending	lumbar_rotation
      0.01000000	      1.42703921	     -1.59418522	      1.59554823	     -1.12422094	      1.08023462	     -0.54795500	     -4.94676942	      2.13805896	     -1.82466733	     -6.69130063	     11.01965150	     -1.76607347	     -3.30716381	     -1.55921034	     -2.90317261	    -10.63115473	     13.75782949	     -1.27514624	     -1.82134270	     -1.07848868	     -6.01577774
      0.02000000	      1.43304729	     -1.60109188	      1.58417193	     -1.12423740	      1.08024447	     -0.54810752	     -4.94325336	      2.13611554	     -1.80198678	     -6.70584136	     11.00316862	     -1.76957526	     -3.30606478	     -1.55651080	     -2.91762870	    -10.64574479	     13.76998088	     -1.27461795	     -1.82412366	     -1.06806103	     -6.04879955
      0.03000000	      1.43911481	     -1.60961754	      1.57289664	     -1.12425108	      1.08025345	     -0.54828446	     -4.94102129	      2.13451615	     -1.78395326	     -6.71815012	     10.99470390	     -1.77286574	     -3.30360663	     -1.55420848	     -2.93123343	    -10.66345765	     13.78020194	     -1.27584776	     -1.82464656	     -1.05673116	     -6.08218940
      0.04000000	      1.44480550	     -1.61738372	      1.55915567	     -1.12426637	      1.08026024	     -0.54847993	     -4.93900537	      2.13033507	     -1.77071746	     -6.72834647	     10.99012597	     -1.77449884	     -3.30262511	     -1.54911475	     -2.94127156	    -10.67845279	     13.78821797	     -1.27812882	     -1.82450572	     -1.04590533	     -6.11224181
      0.05000000	      1.45259566	     -1.62558718	      1.55137078	     -1.12426625	      1.08026848	     -0.54868040	     -4.94002253	      2.12737093	     -1.75376972	     -6.74125770	     10.98711137	     -1.77498256	     -3.30309524	     -1.54609577	     -2.95603851	    -10.69530846	     13.79905850	     -1.28237019	     -1.82057751	     -1.03920249	     -6.14170542
      0.06000000	      1.45936870	     -1.63291292	      1.53820233	     -1.12425982	      1.08027602	     -0.54888502	     -4.94234977	      2.12175503	     -1.74387952	     -6.74871298	     10.98636249	     -1.77430444	     -3.30655722	     -1.54045279	     -2.96432751	    -10.70661558	     13.80640019	     -1.28539163	     -1.81506648	     -1.03198374	     -6.15835707
      0.07000000	      1.46601949	     -1.64012162	      1.53623079	     -1.12423458	      1.08028249	     -0.54909069	     -4.94737790	      2.11814263	     -1.74015621	     -6.75564917	     10.98586889	     -1.77404541	     -3.31193578	     -1.53645978	     -2.96601421	    -10.71299771	     13.80782705	     -1.28602196	     -1.80286940	     -1.03126399	     -6.16123640
      0.08000000	      1.47285278	     -1.64675799	      1.53202572	     -1.12421335	      1.08028849	     -0.54929571	     -4.95178934	      2.11336593	     -1.73549910	     -6.76296522	     10.98553474	     -1.77358741	     -3.31832316	     -1.53150903	     -2.96833161	    -10.71902506	     13.81000448	     -1.28677947	     -1.79134223	     -1.02897406	     -6.16439839
      0.09000000	      1.49739299	     -1.65002865	      1.48225459	     -1.12420133	      1.08030998	     -0.54942734	     -4.96578505	      2.10207625	     -1.66439115	     -6.78464437	     11.00445054	     -1.75659218	     -3.35250881	     -1.52276153	     -3.03853572	    -10.71626642	     13.84525283	     -1.30262743	     -1.80366629	     -1.02973882	     -6.11864240
      0.10000000	      1.50372635	     -1.65621875	      1.48361101	     -1.12417986	      1.08031335	     -0.54962824	     -4.97027390	      2.09785031	     -1.66174960	     -6.79152195	     11.00345231	     -1.75632393	     -3.35876689	     -1.51878553	     -3.03897389	    -10.71981679	     13.84443178	     -1.30259288	     -1.79119056	     -1.02785484	     -6.11606231
      0.11000000	      1.51648780	     -1.65975387	      1.44725422	     -1.12415920	      1.08032877	     -0.54976970	     -4.96411078	      2.08771342	     -1.63503218	     -6.82741733	     11.00490693	     -1.74953101	     -3.39342215	     -1.50837130	     -3.05373499	    -10.69153844	     13.84562544	     -1.30445255	     -1.78708715	     -1.02903255	     -6.05333864
      0.12000000	      1.52313018	     -1.66474065	      1.45074380	     -1.12413333	      1.08033095	     -0.54995602	     -4.96903793	      2.08354717	     -1.63073233	     -6.83439651	     11.00555586	     -1.74922693	     -3.39965731	     -1.50459642	     -3.05611329	    -10.69616344	     13.84502880	     -1.30461012	     -1.77421616	     -1.02829597	     -6.04890234
      0.13000000	      1.53865971	     -1.65678302	      1.38963149	     -1.12410880	      1.08034399	     -0.55004116	     -4.96318355	      2.06068249	     -1.56214658	     -6.87568330	     11.04111018	     -1.73810912	     -3.43704366	     -1.48355957	     -3.12604368	    -10.67219076	     13.84306670	     -1.31241660	     -1.77380682	     -1.04404261	     -5.95476611
      0.14000000	      1.54508565	     -1.66120920	      1.39406391	     -1.12408707	      1.08034489	     -0.55022203	     -4.96606697	      2.05626123	     -1.55831251	     -6.88506434	     11.04014130	     -1.73802789	     -3.44227499	     -1.47916296	     -3.12574278	    -10.67713312	     13.84292285	     -1.31260205	     -1.76334914	     -1.04096985	     -5.94956373
      0.15000000	      1.55755455	     -1.66306339	      1.37411722	     -1.12412231	      1.08035395	     -0.55035609	     -4.94601622	      2.04739495	     -1.53783749	     -6.94246183	     11.04313318	     -1.73661589	     -3.45508538	     -1.46968010	     -3.12157414	    -10.68136866	     13.84971744	     -1.31685260	     -1.77129993	     -1.04230006	     -5.90566668
      0.16000000	      1.55764216	     -1.65623714	      1.33991614	     -1.12411019	      1.08033987	     -0.55046967	     -4.92177477	      2.02813209	     -1.50590539	     -6.98716854	     11.08531489	     -1.73239745	     -3.46187026	     -1.45149292	     -3.17062191	    -10.67659749	     13.85340100	     -1.33224915	     -1.75539916	     -1.05333532	     -5.84774940
